<svg xmlns="http://www.w3.org/2000/svg" viewBox="0 0 64 64">
  <defs>
    <linearGradient id="emerald" x1="0%" y1="0%" x2="100%" y2="100%">
      <stop offset="0%" stop-color="#10b981"/>
      <stop offset="100%" stop-color="#059669"/>
    </linearGradient>
  </defs>
  <rect width="64" height="64" rx="14" fill="url(#emerald)"/>
  <path fill="#ffffff" d="M32 12C21.51 12 13 20.51 13 31c0 8.85 5.73 16.33 13.68 18.97.5.09.69-.21.69-.47 0-.24-.01-1.03-.01-1.86-5.03.92-6.32-1.23-6.72-2.35-.23-.58-1.2-2.35-2.05-2.83-.7-.38-1.7-1.3-.03-1.32 1.58-.03 2.7 1.45 3.08 2.05 1.8 3.03 4.68 2.18 5.83 1.65.18-1.3.7-2.18 1.27-2.68-4.45-.5-9.1-2.22-9.1-9.88 0-2.18.78-3.98 2.05-5.38-.2-.5-.9-2.55.2-5.3 0 0 1.68-.53 5.5 2.05 1.6-.45 3.3-.68 5-.68s3.4.23 5 .68c3.82-2.6 5.5-2.05 5.5-2.05 1.1 2.75.4 4.8.2 5.3 1.28 1.4 2.05 3.18 2.05 5.38 0 7.68-4.68 9.38-9.13 9.88.73.63 1.35 1.83 1.35 3.7 0 2.68-.03 4.83-.03 5.5 0 .26.18.58.69.47C45.27 47.33 51 39.83 51 31c0-10.49-8.51-19-19-19z"/>
</svg>
